<svg aria-hidden="true" style="position: absolute; width: 0; height: 0; overflow: hidden;" version="1.1" xmlns="http://www.w3.org/2000/svg" xmlns:xlink="http://www.w3.org/1999/xlink">
<defs>
<symbol id="icon-play" viewBox="0 0 32 32">
<path d="M30.662 5.003c-4.488-0.645-9.448-1.003-14.662-1.003s-10.174 0.358-14.662 1.003c-0.86 3.366-1.338 7.086-1.338 10.997s0.477 7.63 1.338 10.997c4.489 0.645 9.448 1.003 14.662 1.003s10.174-0.358 14.662-1.003c0.86-3.366 1.338-7.086 1.338-10.997s-0.477-7.63-1.338-10.997zM12 22v-12l10 6-10 6z"></path>
</symbol>
<symbol id="icon-mail4" viewBox="0 0 32 32">
<path d="M16 0c-8.837 0-16 7.163-16 16s7.163 16 16 16 16-7.163 16-16-7.163-16-16-16zM8 8h16c0.286 0 0.563 0.061 0.817 0.177l-8.817 10.286-8.817-10.287c0.254-0.116 0.531-0.177 0.817-0.177zM6 22v-12c0-0.042 0.002-0.084 0.004-0.125l5.864 6.842-5.8 5.8c-0.045-0.167-0.069-0.34-0.069-0.517zM24 24h-16c-0.177 0-0.35-0.024-0.517-0.069l5.691-5.691 2.826 3.297 2.826-3.297 5.691 5.691c-0.167 0.045-0.34 0.069-0.517 0.069zM26 22c0 0.177-0.024 0.35-0.069 0.517l-5.8-5.8 5.865-6.842c0.003 0.041 0.004 0.083 0.004 0.125v12z"></path>
</symbol>
<symbol id="icon-facebook" viewBox="0 0 32 32">
<path d="M19 6h5v-6h-5c-3.86 0-7 3.14-7 7v3h-4v6h4v16h6v-16h5l1-6h-6v-3c0-0.542 0.458-1 1-1z"></path>
</symbol>
<symbol id="icon-instagram" viewBox="0 0 32 32">
<path d="M16 2.881c4.275 0 4.781 0.019 6.462 0.094 1.563 0.069 2.406 0.331 2.969 0.55 0.744 0.288 1.281 0.638 1.837 1.194 0.563 0.563 0.906 1.094 1.2 1.838 0.219 0.563 0.481 1.412 0.55 2.969 0.075 1.688 0.094 2.194 0.094 6.463s-0.019 4.781-0.094 6.463c-0.069 1.563-0.331 2.406-0.55 2.969-0.288 0.744-0.637 1.281-1.194 1.837-0.563 0.563-1.094 0.906-1.837 1.2-0.563 0.219-1.413 0.481-2.969 0.55-1.688 0.075-2.194 0.094-6.463 0.094s-4.781-0.019-6.463-0.094c-1.563-0.069-2.406-0.331-2.969-0.55-0.744-0.288-1.281-0.637-1.838-1.194-0.563-0.563-0.906-1.094-1.2-1.837-0.219-0.563-0.481-1.413-0.55-2.969-0.075-1.688-0.094-2.194-0.094-6.463s0.019-4.781 0.094-6.463c0.069-1.563 0.331-2.406 0.55-2.969 0.288-0.744 0.638-1.281 1.194-1.838 0.563-0.563 1.094-0.906 1.838-1.2 0.563-0.219 1.412-0.481 2.969-0.55 1.681-0.075 2.188-0.094 6.463-0.094zM16 0c-4.344 0-4.887 0.019-6.594 0.094-1.7 0.075-2.869 0.35-3.881 0.744-1.056 0.412-1.95 0.956-2.837 1.85-0.894 0.888-1.438 1.781-1.85 2.831-0.394 1.019-0.669 2.181-0.744 3.881-0.075 1.713-0.094 2.256-0.094 6.6s0.019 4.887 0.094 6.594c0.075 1.7 0.35 2.869 0.744 3.881 0.413 1.056 0.956 1.95 1.85 2.837 0.887 0.887 1.781 1.438 2.831 1.844 1.019 0.394 2.181 0.669 3.881 0.744 1.706 0.075 2.25 0.094 6.594 0.094s4.888-0.019 6.594-0.094c1.7-0.075 2.869-0.35 3.881-0.744 1.050-0.406 1.944-0.956 2.831-1.844s1.438-1.781 1.844-2.831c0.394-1.019 0.669-2.181 0.744-3.881 0.075-1.706 0.094-2.25 0.094-6.594s-0.019-4.887-0.094-6.594c-0.075-1.7-0.35-2.869-0.744-3.881-0.394-1.063-0.938-1.956-1.831-2.844-0.887-0.887-1.781-1.438-2.831-1.844-1.019-0.394-2.181-0.669-3.881-0.744-1.712-0.081-2.256-0.1-6.6-0.1v0z"></path>
<path d="M16 7.781c-4.537 0-8.219 3.681-8.219 8.219s3.681 8.219 8.219 8.219 8.219-3.681 8.219-8.219c0-4.537-3.681-8.219-8.219-8.219zM16 21.331c-2.944 0-5.331-2.387-5.331-5.331s2.387-5.331 5.331-5.331c2.944 0 5.331 2.387 5.331 5.331s-2.387 5.331-5.331 5.331z"></path>
<path d="M26.462 7.456c0 1.060-0.859 1.919-1.919 1.919s-1.919-0.859-1.919-1.919c0-1.060 0.859-1.919 1.919-1.919s1.919 0.859 1.919 1.919z"></path>
</symbol>
<symbol id="icon-whatsapp" viewBox="0 0 32 32">
<path d="M27.281 4.65c-2.994-3-6.975-4.65-11.219-4.65-8.738 0-15.85 7.112-15.85 15.856 0 2.794 0.731 5.525 2.119 7.925l-2.25 8.219 8.406-2.206c2.319 1.262 4.925 1.931 7.575 1.931h0.006c0 0 0 0 0 0 8.738 0 15.856-7.113 15.856-15.856 0-4.238-1.65-8.219-4.644-11.219zM16.069 29.050v0c-2.369 0-4.688-0.637-6.713-1.837l-0.481-0.288-4.987 1.306 1.331-4.863-0.313-0.5c-1.325-2.094-2.019-4.519-2.019-7.012 0-7.269 5.912-13.181 13.188-13.181 3.519 0 6.831 1.375 9.319 3.862 2.488 2.494 3.856 5.8 3.856 9.325-0.006 7.275-5.919 13.188-13.181 13.188zM23.294 19.175c-0.394-0.2-2.344-1.156-2.706-1.288s-0.625-0.2-0.894 0.2c-0.262 0.394-1.025 1.288-1.256 1.556-0.231 0.262-0.462 0.3-0.856 0.1s-1.675-0.619-3.188-1.969c-1.175-1.050-1.975-2.35-2.206-2.744s-0.025-0.613 0.175-0.806c0.181-0.175 0.394-0.463 0.594-0.694s0.262-0.394 0.394-0.662c0.131-0.262 0.069-0.494-0.031-0.694s-0.894-2.15-1.219-2.944c-0.319-0.775-0.65-0.669-0.894-0.681-0.231-0.012-0.494-0.012-0.756-0.012s-0.694 0.1-1.056 0.494c-0.363 0.394-1.387 1.356-1.387 3.306s1.419 3.831 1.619 4.1c0.2 0.262 2.794 4.269 6.769 5.981 0.944 0.406 1.681 0.65 2.256 0.837 0.95 0.3 1.813 0.256 2.494 0.156 0.762-0.113 2.344-0.956 2.675-1.881s0.331-1.719 0.231-1.881c-0.094-0.175-0.356-0.275-0.756-0.475z"></path>
</symbol>
<symbol id="icon-telegram" viewBox="0 0 32 32">
<path d="M16 0c-8.838 0-16 7.162-16 16s7.162 16 16 16 16-7.163 16-16-7.163-16-16-16zM23.863 10.969l-2.625 12.369c-0.181 0.881-0.712 1.087-1.45 0.681l-4-2.956-1.919 1.869c-0.225 0.219-0.4 0.4-0.8 0.4-0.519 0-0.431-0.194-0.606-0.688l-1.363-4.475-3.956-1.231c-0.856-0.262-0.862-0.85 0.194-1.269l15.412-5.95c0.7-0.319 1.381 0.169 1.113 1.25z"></path>
</symbol>
<symbol id="icon-twitter" viewBox="0 0 32 32">
<path d="M32 7.075c-1.175 0.525-2.444 0.875-3.769 1.031 1.356-0.813 2.394-2.1 2.887-3.631-1.269 0.75-2.675 1.3-4.169 1.594-1.2-1.275-2.906-2.069-4.794-2.069-3.625 0-6.563 2.938-6.563 6.563 0 0.512 0.056 1.012 0.169 1.494-5.456-0.275-10.294-2.888-13.531-6.862-0.563 0.969-0.887 2.1-0.887 3.3 0 2.275 1.156 4.287 2.919 5.463-1.075-0.031-2.087-0.331-2.975-0.819 0 0.025 0 0.056 0 0.081 0 3.181 2.263 5.838 5.269 6.437-0.55 0.15-1.131 0.231-1.731 0.231-0.425 0-0.831-0.044-1.237-0.119 0.838 2.606 3.263 4.506 6.131 4.563-2.25 1.762-5.075 2.813-8.156 2.813-0.531 0-1.050-0.031-1.569-0.094 2.913 1.869 6.362 2.95 10.069 2.95 12.075 0 18.681-10.006 18.681-18.681 0-0.287-0.006-0.569-0.019-0.85 1.281-0.919 2.394-2.075 3.275-3.394z"></path>
</symbol>
<symbol id="icon-phone-black" viewBox="0 0 32 32">
<path d="M24.882 19.774l-3.268-0.373c-0.090-0.011-0.194-0.018-0.3-0.018-0.707 0-1.347 0.287-1.81 0.75l-2.368 2.368c-3.669-1.894-6.585-4.81-8.427-8.372l-0.051-0.108 2.382-2.377c0.463-0.463 0.75-1.103 0.75-1.81 0-0.106-0.006-0.21-0.019-0.312l0.001 0.012-0.373-3.243c-0.155-1.287-1.24-2.276-2.557-2.276-0.001 0-0.002 0-0.003 0h-2.226c-1.454 0-2.663 1.209-2.574 2.661 0.683 10.987 9.47 19.762 20.444 20.444 1.452 0.089 2.663-1.12 2.663-2.574v-2.226c0-0.004 0-0.008 0-0.012 0-1.308-0.985-2.386-2.253-2.532l-0.012-0.001z"></path>
</symbol>
<symbol id="icon-youtube" viewBox="0 0 32 32">
<path d="M31.681 9.6c0 0-0.313-2.206-1.275-3.175-1.219-1.275-2.581-1.281-3.206-1.356-4.475-0.325-11.194-0.325-11.194-0.325h-0.012c0 0-6.719 0-11.194 0.325-0.625 0.075-1.987 0.081-3.206 1.356-0.963 0.969-1.269 3.175-1.269 3.175s-0.319 2.588-0.319 5.181v2.425c0 2.587 0.319 5.181 0.319 5.181s0.313 2.206 1.269 3.175c1.219 1.275 2.819 1.231 3.531 1.369 2.563 0.244 10.881 0.319 10.881 0.319s6.725-0.012 11.2-0.331c0.625-0.075 1.988-0.081 3.206-1.356 0.962-0.969 1.275-3.175 1.275-3.175s0.319-2.587 0.319-5.181v-2.425c-0.006-2.588-0.325-5.181-0.325-5.181zM12.694 20.15v-8.994l8.644 4.513-8.644 4.481z"></path>
</symbol>
<symbol id="icon-youtube2" viewBox="0 0 80 32">
<path d="M10.75 5.294c0.007-0.027 0.011-0.046 0.012-0.056l0.033-0.236-1.48-0.008c-1.337-0.008-1.746 0-1.783 0.034-0.018 0.016-0.479 1.77-1.302 4.946-0.392 1.515-0.723 2.725-0.734 2.689s-0.481-1.766-1.044-3.843c-0.563-2.078-1.034-3.789-1.048-3.803-0.019-0.019-1.812-0.028-3.263-0.016-0.21 0.002-0.327-0.41 1.876 6.598 0.305 0.97 0.762 2.344 1.015 3.052 0.292 0.817 0.5 1.448 0.642 1.974 0.251 1.002 0.26 1.63 0.205 2.363-0.063 0.847-0.073 6.826-0.011 6.926 0.047 0.077 2.851 0.112 3.116 0.040 0.042-0.012 0.071-0.053 0.090-0.279 0.066-0.194 0.071-0.968 0.071-4.18v-4.103l0.179-0.566c0.117-0.37 0.413-1.344 0.656-2.163s0.538-1.801 0.654-2.18c1.057-3.447 2.067-6.838 2.094-7.032l0.022-0.158z"></path>
<path d="M26.441 10.27l-0.001 0.214-0.033 0-0.019 5.906-0.018 5.726-0.458 0.467c-0.513 0.522-0.925 0.722-1.297 0.629-0.405-0.102-0.395 0.056-0.429-6.712l-0.031-6.23h-2.947v0.214h-0.034v6.759c0 7.242-0 7.237 0.367 7.965 0.293 0.579 0.719 0.861 1.45 0.958h0c0.962 0.128 2-0.308 2.962-1.244l0.418-0.407v0.701c0 0.606 0.017 0.706 0.127 0.737 0.18 0.050 2.412 0.053 2.653 0.004l0.2-0.041v-0.207l0.034-0.007v-15.472l-2.944 0.039z"></path>
<path d="M18.965 13.323c-0.279-1.198-0.802-2.004-1.664-2.561-1.353-0.875-2.897-0.967-4.331-0.259-1.045 0.516-1.717 1.372-2.065 2.628-0.041 0.15-0.072 0.275-0.095 0.463-0.088 0.443-0.099 1.105-0.122 4.186-0.035 4.748 0.019 5.313 0.614 6.391 0.583 1.058 1.794 1.833 3.112 1.993 0.397 0.048 1.201-0.027 1.663-0.155 1.051-0.291 2.058-1.122 2.504-2.065 0.192-0.407 0.309-0.691 0.379-1.208 0.13-0.707 0.14-1.849 0.14-4.762-0-3.715-0.012-4.121-0.136-4.651zM15.604 23c-0.247 0.188-0.679 0.27-1.031 0.195-0.271-0.058-0.636-0.482-0.748-0.869-0.14-0.482-0.151-7.187-0.030-8.502 0.199-0.658 0.756-1.002 1.364-0.838 0.474 0.128 0.716 0.424 0.854 1.046 0.103 0.461 0.115 1.035 0.093 4.414-0.014 2.241-0.022 3.336-0.096 3.924-0.074 0.371-0.197 0.47-0.407 0.63z"></path>
<path d="M71.887 16.692h1.424l-0.023-1.29c-0.022-1.183-0.039-1.319-0.198-1.64-0.249-0.507-0.617-0.731-1.201-0.731-0.701 0-1.146 0.339-1.356 1.036-0.089 0.296-0.183 2.334-0.116 2.51 0.038 0.098 0.241 0.116 1.469 0.116z"></path>
<path d="M62.369 13.757c-0.19-0.383-0.543-0.571-0.954-0.556-0.319 0.011-0.674 0.146-1.015 0.407l-0.254 0.193v9.269l0.254 0.193c0.576 0.439 1.209 0.532 1.644 0.241 0.172-0.115 0.285-0.274 0.372-0.527 0.114-0.329 0.124-0.75 0.109-4.649-0.015-4.064-0.024-4.303-0.157-4.57z"></path>
<path d="M80.027 9.582c-0.284-3.401-0.509-4.505-1.211-5.923-0.929-1.878-2.272-2.868-4.184-3.086-1.478-0.168-7.041-0.405-12.189-0.52-8.912-0.198-23.564 0.183-25.436 0.662-0.865 0.221-1.513 0.597-2.188 1.269-1.183 1.177-1.887 2.865-2.17 5.2-0.647 5.331-0.66 11.773-0.037 17.297 0.268 2.376 0.82 3.92 1.857 5.192 0.647 0.794 1.761 1.469 2.758 1.67 0.7 0.141 4.201 0.337 9.3 0.521 0.76 0.027 2.771 0.074 4.47 0.105 3.541 0.063 10.051 0.026 13.772-0.079 2.504-0.070 7.069-0.255 7.922-0.321 0.24-0.019 0.796-0.054 1.236-0.079 1.477-0.083 2.417-0.393 3.3-1.086 1.142-0.897 2.027-2.556 2.4-4.501 0.354-1.84 0.59-5.118 0.638-8.839 0.040-3.109-0.013-4.787-0.238-7.482zM44.54 8.35l-1.656 0.020-0.073 17.661-1.435 0.018c-1.11 0.015-1.447-0.001-1.474-0.073-0.019-0.051-0.042-4.032-0.052-8.849l-0.018-8.758-3.234-0.041v-2.76l9.557 0.039 0.041 2.721-1.656 0.020zM54.694 18.472v7.595h-2.616v-0.799c0-0.601-0.023-0.799-0.093-0.799-0.051 0-0.288 0.198-0.527 0.441-0.517 0.526-1.13 0.949-1.653 1.145-1.083 0.405-2.112 0.169-2.551-0.586-0.401-0.691-0.409-0.845-0.409-8.010v-6.58h2.614l0.020 6.196c0.019 6.088 0.022 6.2 0.168 6.448 0.193 0.329 0.488 0.417 0.956 0.288 0.276-0.076 0.464-0.21 0.911-0.654l0.563-0.561v-11.717h2.616v7.595zM64.899 24.982c-0.23 0.513-0.744 1.016-1.165 1.14-1.099 0.324-1.98 0.060-2.998-0.897-0.316-0.297-0.61-0.538-0.654-0.538-0.053 0-0.082 0.233-0.082 0.69v0.69h-2.616v-20.495h2.616v3.343c0 1.839 0.025 3.343 0.054 3.343s0.306-0.244 0.613-0.541c0.707-0.683 1.298-0.981 2.049-1.038 1.338-0.101 2.135 0.587 2.501 2.16 0.114 0.491 0.125 1.051 0.125 5.596-0 5.537-0.001 5.56-0.443 6.546zM75.968 21.943c-0.023 0.57-0.092 1.223-0.154 1.454-0.364 1.349-1.332 2.304-2.732 2.696-1.885 0.527-3.96-0.337-4.788-1.994-0.465-0.93-0.481-1.116-0.481-5.662 0-3.707 0.013-4.162 0.132-4.667 0.336-1.431 1.168-2.357 2.578-2.871 0.408-0.149 0.835-0.225 1.261-0.234 1.521-0.031 3.031 0.787 3.663 2.119 0.427 0.899 0.48 1.283 0.522 3.816l0.039 2.271-5.578 0.039-0.020 1.526c-0.029 2.153 0.116 2.815 0.697 3.207 0.489 0.329 1.24 0.305 1.649-0.055 0.383-0.337 0.491-0.698 0.529-1.753l0.034-0.927h2.694l-0.043 1.036z"></path>
</symbol>
<symbol id="icon-vimeo" viewBox="0 0 32 32">
<path d="M31.988 8.563c-0.144 3.113-2.319 7.381-6.525 12.794-4.35 5.65-8.031 8.481-11.044 8.481-1.863 0-3.444-1.719-4.731-5.163-0.863-3.156-1.719-6.313-2.581-9.469-0.956-3.444-1.981-5.162-3.081-5.162-0.237 0-1.075 0.506-2.513 1.506l-1.506-1.938c1.581-1.387 3.138-2.775 4.669-4.162 2.106-1.819 3.688-2.775 4.744-2.875 2.487-0.237 4.025 1.463 4.6 5.106 0.619 3.931 1.050 6.375 1.294 7.331 0.719 3.263 1.506 4.894 2.369 4.894 0.669 0 1.675-1.056 3.019-3.175 1.337-2.113 2.056-3.725 2.156-4.831 0.194-1.825-0.525-2.744-2.156-2.744-0.769 0-1.556 0.175-2.369 0.525 1.575-5.15 4.575-7.65 9.012-7.506 3.281 0.087 4.831 2.219 4.644 6.388z"></path>
</symbol>
<symbol id="icon-linkedin2" viewBox="0 0 32 32">
<path d="M12 12h5.535v2.837h0.079c0.77-1.381 2.655-2.837 5.464-2.837 5.842 0 6.922 3.637 6.922 8.367v9.633h-5.769v-8.54c0-2.037-0.042-4.657-3.001-4.657-3.005 0-3.463 2.218-3.463 4.509v8.688h-5.767v-18z"></path>
<path d="M2 12h6v18h-6v-18z"></path>
<path d="M8 7c0 1.657-1.343 3-3 3s-3-1.343-3-3c0-1.657 1.343-3 3-3s3 1.343 3 3z"></path>
</symbol>
<symbol id="icon-logo" viewBox="0 0 31 32">
<path fill="#516489" style="fill: var(--color1, #516489)" d="M0 16v16h30.916v-32h-30.916v16zM14.42 0.998c0.040 0.080 0.068 0.262 0.068 0.394 0 0.217-0.029 0.274-0.205 0.433-0.245 0.211-0.416 0.205-0.53-0.023-0.12-0.251-0.006-0.553 0.291-0.77 0.131-0.097 0.257-0.177 0.274-0.177 0.023 0 0.068 0.063 0.103 0.143zM13.376 1.147c0.16 0.143 0.2 0.217 0.2 0.388 0 0.302-0.103 0.428-0.297 0.354-0.24-0.091-0.354-0.308-0.308-0.588 0.063-0.399 0.108-0.411 0.405-0.154zM16.371 1.244c0 0.28-0.194 0.485-0.434 0.456-0.308-0.034-0.222-0.479 0.12-0.622 0.245-0.097 0.314-0.063 0.314 0.165zM17.688 1.255c0.057 0.080 0.125 0.222 0.143 0.319 0.029 0.16 0.017 0.183-0.125 0.217-0.24 0.063-0.456-0.057-0.559-0.314-0.148-0.365-0.131-0.405 0.171-0.382 0.205 0.011 0.291 0.051 0.371 0.16zM12.486 1.346c0.211 0.177 0.222 0.268 0.051 0.388-0.2 0.143-0.416 0.108-0.645-0.086-0.108-0.097-0.2-0.2-0.2-0.228 0-0.074 0.297-0.217 0.468-0.222 0.080 0 0.228 0.068 0.325 0.148zM11.545 1.546c0.16 0.188 0.183 0.337 0.091 0.513-0.080 0.143-0.183 0.137-0.365-0.034-0.16-0.148-0.183-0.274-0.091-0.508 0.074-0.194 0.188-0.188 0.365 0.029zM15.367 1.449c0.325 0.137 0.416 0.719 0.114 0.719-0.228 0-0.365-0.188-0.365-0.513 0-0.16 0.011-0.285 0.029-0.285s0.12 0.034 0.222 0.080zM18.767 1.534c0.154 0.297-0.011 0.679-0.342 0.799-0.154 0.051-0.183 0.040-0.262-0.080-0.137-0.211-0.057-0.462 0.217-0.662 0.274-0.194 0.308-0.2 0.388-0.057zM10.883 1.706c0.029 0.183-0.029 0.376-0.137 0.485-0.103 0.108-0.365 0.12-0.365 0.017 0-0.034-0.017-0.12-0.034-0.188-0.046-0.165 0.234-0.491 0.399-0.468 0.074 0.011 0.126 0.068 0.137 0.154zM19.645 1.688c0.137 0.359-0.16 0.764-0.565 0.764-0.103 0-0.143-0.040-0.171-0.171-0.051-0.234 0.086-0.433 0.388-0.576 0.291-0.131 0.302-0.131 0.348-0.017zM10.062 1.945c0.222 0.177 0.285 0.376 0.177 0.542-0.108 0.171-0.183 0.171-0.354 0.011-0.131-0.12-0.171-0.382-0.097-0.582 0.046-0.12 0.091-0.114 0.274 0.029zM16.975 1.917c0.108 0.051 0.194 0.126 0.194 0.165s-0.103 0.165-0.228 0.28c-0.257 0.228-0.508 0.268-0.73 0.114-0.165-0.114-0.16-0.257 0.034-0.433 0.251-0.24 0.428-0.268 0.73-0.125zM13.45 2.111c0.154 0.097 0.354 0.399 0.354 0.536 0 0.017-0.074 0.068-0.171 0.12-0.348 0.177-0.696 0.063-0.901-0.302-0.16-0.291-0.16-0.331 0.034-0.399 0.245-0.091 0.479-0.074 0.684 0.046zM14.945 2.259c0 0.262-0.080 0.399-0.285 0.508-0.234 0.12-0.337 0.108-0.399-0.063-0.080-0.205 0.034-0.428 0.285-0.548 0.314-0.16 0.399-0.137 0.399 0.103zM11.18 2.396c0 0.28-0.211 0.53-0.416 0.502-0.257-0.034-0.194-0.496 0.086-0.633 0.285-0.143 0.331-0.126 0.331 0.131zM14.038 2.401c0.103 0.205 0.114 0.314 0.097 0.935l-0.017 0.707 0.171 0.177c0.325 0.337 1.192 0.667 2.053 0.77l0.337 0.046-0.2-0.234c-0.445-0.525-0.684-1.238-0.673-2.036 0.011-0.473 0.011-0.491 0.051-0.2 0.143 1.118 0.799 2.173 1.723 2.795 0.297 0.2 0.359 0.222 0.399 0.143 0.103-0.177 0.114-1.015 0.023-1.523-0.097-0.542-0.063-0.935 0.108-1.232 0.091-0.148 0.091-0.148 0.057-0.011-0.097 0.365-0.097 0.998 0 1.221l0.091 0.217 0.148-0.228c0.183-0.28 0.331-0.354 0.719-0.354 0.433 0 0.485 0.051 0.354 0.337-0.154 0.342-0.673 0.559-1.021 0.428-0.068-0.029-0.074-0.057-0.029-0.143 0.051-0.103 0.046-0.108-0.063-0.040-0.091 0.057-0.108 0.108-0.080 0.245 0.023 0.091 0.046 0.434 0.051 0.747 0.011 0.57 0.011 0.582 0.211 0.827 0.319 0.399 0.416 0.724 0.416 1.42 0 0.473-0.034 0.724-0.165 1.198-0.177 0.662-0.262 1.141-0.211 1.141 0.017 0 0.108-0.143 0.2-0.314 0.314-0.599 0.85-1.232 1.614-1.905 0.684-0.599 0.964-1.147 1.027-2.031 0.029-0.411-0.068-1.226-0.183-1.603-0.029-0.086-0.029-0.091 0.023-0.023 0.228 0.354 0.354 1.785 0.211 2.447-0.148 0.713-0.359 1.067-1.015 1.768-0.719 0.759-0.998 1.107-1.335 1.694-0.359 0.639-0.536 1.226-0.536 1.814 0 0.439 0.074 0.833 0.16 0.833 0.023 0 0.234-0.154 0.468-0.348 0.793-0.633 1.728-1.243 2.675-1.74 0.439-0.228 0.588-0.342 0.81-0.622 0.542-0.667 0.764-1.283 0.896-2.47 0.063-0.513 0.2-0.924 0.337-0.964 0.040-0.017 0.034 0.057-0.023 0.222-0.046 0.143-0.103 0.599-0.131 1.072-0.034 0.73-0.063 0.873-0.211 1.226-0.091 0.222-0.291 0.593-0.439 0.821l-0.274 0.422 0.279-0.034c0.148-0.023 0.662-0.086 1.129-0.148 0.548-0.068 0.981-0.154 1.198-0.24 0.399-0.16 0.799-0.53 0.987-0.907l0.125-0.257v0.188c0 0.399-0.376 0.856-0.958 1.147-0.131 0.068-0.684 0.24-1.226 0.382-1.078 0.285-1.837 0.542-2.561 0.867-0.588 0.268-1.089 0.525-1.061 0.553 0.006 0.006 0.325 0.080 0.702 0.16 0.69 0.154 1.38 0.348 1.854 0.53 0.148 0.057 0.319 0.086 0.399 0.063 0.080-0.017 0.428-0.302 0.776-0.627 0.742-0.696 0.884-0.764 1.415-0.673 0.913 0.16 1.346 0.040 1.46-0.405 0.125-0.462 0.177-0.496 0.148-0.097-0.040 0.69-0.234 0.821-1.186 0.799-0.776-0.017-1.135 0.080-1.46 0.376-0.211 0.2-0.559 0.742-0.508 0.793 0.068 0.074 1.124 0.148 1.637 0.114 0.935-0.051 1.489-0.234 1.939-0.645 0.325-0.285 0.285-0.126-0.046 0.205-0.302 0.302-0.719 0.491-1.306 0.588l-0.359 0.063 0.251 0.268c0.137 0.148 0.291 0.348 0.342 0.445 0.165 0.325 0.656 0.468 1.215 0.365 0.359-0.063 0.354 0.006-0.006 0.097-0.319 0.080-0.776 0.080-0.975 0.006l-0.154-0.057 0.143 0.171c0.177 0.205 0.234 0.439 0.183 0.742-0.040 0.251-0.108 0.28-0.365 0.143-0.211-0.108-0.348-0.405-0.348-0.764 0-0.319 0.017-0.337 0.194-0.194 0.068 0.057 0.086 0.063 0.051 0.017-0.097-0.108-0.091-0.188 0.006-0.154 0.12 0.046-0.24-0.513-0.433-0.679-0.217-0.177-0.468-0.24-1.129-0.28-0.394-0.023-0.508-0.017-0.411 0.029 0.291 0.126 0.411 0.365 0.411 0.804 0 0.325-0.057 0.371-0.382 0.308-0.297-0.051-0.508-0.285-0.553-0.616-0.023-0.143-0.017-0.308 0.011-0.354 0.040-0.074 0.074-0.051 0.2 0.137 0.211 0.319 0.251 0.291 0.068-0.046l-0.154-0.274-0.445-0.034c-0.382-0.029-0.719-0.114-1.152-0.297-0.125-0.051-0.131 0.029-0.017 0.416 0.222 0.747 1.072 1.323 1.962 1.323 0.137 0 0.234 0.029 0.234 0.063 0 0.046-0.165 0.057-0.559 0.040-0.439-0.023-0.627-0.057-0.884-0.177-0.451-0.205-0.804-0.582-1.067-1.141-0.188-0.399-0.262-0.496-0.502-0.65-0.331-0.217-0.901-0.416-1.175-0.416-0.365 0-0.833 0.228-1.175 0.57-0.302 0.308-0.742 1.010-0.742 1.186 0 0.165-0.405 1.301-0.61 1.694-0.405 0.793-0.764 1.204-1.352 1.551-0.519 0.302-0.821 0.57-0.964 0.856l-0.131 0.257-0.126-0.416c-0.068-0.234-0.16-0.639-0.211-0.901-0.097-0.548-0.217-0.838-0.508-1.249-0.24-0.342-0.245-0.388-0.091-0.439 0.063-0.017 0.137-0.086 0.171-0.143 0.057-0.108 0.006-0.177-0.194-0.251-0.097-0.034-0.103-0.080-0.074-0.565 0.074-1.101 0.434-1.58 1.078-1.409 0.137 0.040 0.325 0.114 0.416 0.171 0.114 0.068 0.211 0.086 0.285 0.057 0.337-0.143 0.599 0.029 0.599 0.388 0 0.148-0.040 0.257-0.114 0.325-0.080 0.074-0.114 0.177-0.114 0.342 0 0.297-0.171 0.542-0.376 0.542-0.080 0-0.188 0.023-0.245 0.057-0.143 0.074-0.285 0.451-0.331 0.85-0.029 0.302-0.023 0.342 0.103 0.428 0.314 0.217 0.781 0.011 1.135-0.508 0.205-0.297 0.565-1.055 0.713-1.483 0.148-0.439 0.177-1.226 0.063-1.768-0.063-0.274-0.108-0.85-0.131-1.455-0.023-0.901-0.040-1.027-0.165-1.289-0.165-0.348-0.696-0.884-1.42-1.432-0.65-0.496-0.838-0.759-0.867-1.198l-0.017-0.331 0.126 0.337c0.143 0.411 0.542 0.838 0.878 0.947 0.468 0.154 1.169 0.724 1.517 1.226 0.068 0.108 0.154 0.188 0.183 0.183 0.068-0.023 0.302-0.707 0.405-1.198 0.177-0.816 0.068-1.426-0.314-1.768-0.325-0.297-0.559-0.399-1.899-0.844-1.586-0.525-2.019-0.747-2.27-1.158-0.126-0.205-0.137-0.394-0.040-0.947 0.068-0.382 0.034-0.742-0.097-1.044-0.086-0.2 0.029-0.091 0.148 0.137zM9.195 2.322c0.148 0.171 0.171 0.342 0.074 0.53-0.103 0.2-0.16 0.211-0.314 0.057-0.131-0.131-0.143-0.245-0.051-0.508 0.068-0.2 0.165-0.222 0.291-0.080zM15.481 2.521c0.143 0.131 0.165 0.217 0.154 0.513-0.006 0.2-0.165 0.211-0.371 0.029-0.143-0.126-0.165-0.211-0.154-0.513 0.006-0.194 0.165-0.205 0.371-0.029zM17.626 2.612c0.074 0.057 0.131 0.188 0.154 0.337 0.029 0.205 0.017 0.24-0.097 0.274-0.297 0.097-0.627-0.194-0.627-0.559 0-0.143 0.017-0.154 0.222-0.154 0.125 0 0.274 0.046 0.348 0.103zM20.963 2.641c0.114 0.097 0.16 0.2 0.183 0.399l0.034 0.268h-0.183c-0.103 0-0.234-0.029-0.302-0.063-0.131-0.068-0.274-0.376-0.274-0.593 0-0.126 0.023-0.143 0.194-0.143 0.125 0 0.257 0.051 0.348 0.131zM8.579 2.709c0.171 0.262 0.057 0.593-0.183 0.519-0.16-0.051-0.217-0.274-0.126-0.491 0.086-0.205 0.183-0.217 0.308-0.029zM21.944 2.881c-0.046 0.319-0.171 0.519-0.359 0.565-0.234 0.063-0.365-0.011-0.365-0.194 0-0.365 0.257-0.622 0.622-0.627 0.125 0 0.131 0.011 0.103 0.257zM11.562 3.040c-0.029 0.331-0.177 0.496-0.445 0.496-0.154 0-0.165-0.011-0.165-0.245 0-0.131 0.040-0.297 0.086-0.371 0.091-0.12 0.411-0.251 0.508-0.194 0.023 0.011 0.034 0.154 0.017 0.314zM19.023 2.795c0.234 0.091 0.24 0.217 0.006 0.445-0.165 0.171-0.245 0.211-0.433 0.211-0.439 0-0.53-0.371-0.154-0.599 0.205-0.126 0.359-0.143 0.582-0.057zM10.701 3.451c0.405 0.844 0.53 1.894 0.331 2.858-0.108 0.513-0.12 0.548-0.684 1.512-0.234 0.394-0.422 0.736-0.422 0.764 0 0.023 0.291 0.029 0.645 0.017 0.553-0.023 0.684-0.046 0.975-0.188 0.69-0.331 1.095-0.947 1.266-1.917 0.051-0.297 0.103-0.548 0.114-0.559 0.057-0.063 0.011 0.861-0.063 1.209-0.217 1.038-0.856 1.586-1.979 1.688-0.713 0.068-1.032 0.228-1.323 0.656-0.519 0.764 0.376 1.957 2.447 3.251 0.348 0.217 0.724 0.456 0.844 0.536 0.354 0.234 0.901 0.867 1.204 1.386 0.154 0.262 0.388 0.645 0.519 0.85 0.451 0.685 0.673 1.255 0.742 1.854 0.074 0.627 0.2 1.135 0.371 1.472l0.165 0.337-0.183 0.148c-0.89 0.719-1.472 1.688-1.614 2.721l-0.040 0.285-0.057-0.257c-0.126-0.61-0.046-2.436 0.137-3.154 0.040-0.148 0.040-0.319-0.006-0.536-0.057-0.268-0.114-0.359-0.394-0.639-0.428-0.416-0.485-0.719-0.234-1.129 0.063-0.103 0.057-0.205-0.057-0.679-0.365-1.506-1.175-2.43-2.219-2.515-0.588-0.051-1.078 0.097-2.088 0.616-0.975 0.502-1.586 0.707-2.367 0.793-0.913 0.108-1.996-0.068-2.824-0.456-0.411-0.194-0.93-0.211-1.523-0.046-0.399 0.108-0.485 0.114-0.719 0.051-0.411-0.108-0.399-0.165 0.029-0.137 0.274 0.023 0.451 0.006 0.605-0.057 0.114-0.051 0.365-0.108 0.553-0.131l0.348-0.040-0.337-0.217c-0.183-0.12-0.382-0.274-0.439-0.348l-0.114-0.126 0.143 0.097c1.323 0.89 2.972 1.306 4.192 1.044 0.405-0.080 0.416-0.137 0.108-0.553-0.222-0.308-0.451-0.491-0.85-0.69-0.371-0.183-0.667-0.257-1.358-0.337-0.901-0.097-1.586-0.319-1.922-0.616-0.16-0.143-0.143-0.137 0.251 0.046 0.416 0.194 0.941 0.297 2.031 0.376 0.234 0.017 0.519 0.063 0.627 0.097 0.354 0.108 1.044 0.491 1.62 0.907l0.559 0.405 0.759-0.371c0.878-0.434 1.745-0.77 2.111-0.821 0.143-0.017 0.274-0.057 0.291-0.086 0.108-0.171-0.702-0.61-1.803-0.981-1.261-0.422-1.791-0.548-2.578-0.605-0.399-0.029-0.975-0.091-1.283-0.148-0.964-0.16-1.226-0.291-1.443-0.707-0.12-0.228-0.491-0.599-0.827-0.827-0.165-0.114-0.188-0.143-0.086-0.114 0.291 0.086 0.61 0.314 0.935 0.69 0.245 0.274 0.433 0.422 0.685 0.542 0.314 0.148 0.405 0.165 0.947 0.165s1.232-0.074 1.295-0.137c0.011-0.011-0.063-0.137-0.171-0.285-0.108-0.143-0.325-0.473-0.479-0.742-0.148-0.268-0.302-0.491-0.331-0.491-0.034 0-0.24-0.086-0.456-0.194-0.719-0.348-1.021-0.77-1.021-1.432 0-0.222 0.029-0.451 0.068-0.513 0.057-0.097 0.063-0.068 0.068 0.205 0 0.502 0.057 0.662 0.297 0.901 0.194 0.2 1.044 0.679 1.101 0.622 0.011-0.011-0.006-0.137-0.040-0.274-0.086-0.348-0.080-1.597 0.006-2.053 0.074-0.388 0.348-1.272 0.382-1.238 0.011 0.011-0.017 0.274-0.063 0.588-0.12 0.793-0.108 1.865 0.023 2.504 0.257 1.249 0.827 2.185 1.523 2.493 0.234 0.103 1.466 0.445 1.603 0.445 0.040 0-0.006-0.126-0.108-0.285-0.154-0.245-0.183-0.359-0.205-0.747-0.034-0.599 0.080-1.027 0.491-1.877 0.319-0.65 0.319-0.662 0.319-1.169 0-0.605-0.068-0.77-0.605-1.466-0.394-0.519-0.605-0.953-0.65-1.34l-0.034-0.274-0.268 0.017c-0.222 0.017-0.285 0-0.394-0.12-0.148-0.154-0.302-0.553-0.257-0.633 0.017-0.023 0.148-0.034 0.285-0.017 0.308 0.034 0.519 0.217 0.588 0.502l0.046 0.194 0.006-0.183c0.006-0.097 0.029-0.194 0.051-0.211 0.023-0.011 0.034 0.057 0.023 0.16-0.029 0.268 0.137 0.878 0.314 1.141 0.080 0.125 0.297 0.411 0.473 0.639 0.416 0.519 0.616 0.93 0.696 1.415 0.034 0.205 0.080 0.376 0.097 0.376 0.080-0.006 0.428-0.542 0.57-0.867 0.137-0.337 0.148-0.416 0.148-1.244 0-0.787-0.023-0.947-0.16-1.432-0.086-0.302-0.194-0.65-0.24-0.77-0.086-0.205-0.086-0.217 0.006-0.108 0.051 0.063 0.177 0.291 0.285 0.513zM10.159 2.966c0.057 0.034 0.148 0.137 0.194 0.228 0.080 0.154 0.080 0.171-0.040 0.251-0.24 0.171-0.479 0.097-0.667-0.217-0.068-0.103-0.12-0.205-0.12-0.222 0-0.091 0.479-0.12 0.633-0.040zM13.376 2.989c0.143 0.063 0.234 0.16 0.325 0.342 0.126 0.257 0.126 0.262 0.011 0.348-0.057 0.046-0.211 0.086-0.342 0.086-0.24 0-0.394-0.114-0.616-0.473-0.154-0.251-0.074-0.342 0.325-0.376 0.057 0 0.188 0.029 0.297 0.074zM7.415 3.251c0 0.291-0.137 0.542-0.342 0.627-0.171 0.068-0.194 0.068-0.268-0.034-0.143-0.194 0.011-0.61 0.268-0.702 0.268-0.103 0.342-0.074 0.342 0.108zM16.918 3.194c0.103 0 0.023 0.262-0.12 0.399-0.183 0.171-0.565 0.143-0.588-0.046-0.034-0.24 0.24-0.433 0.53-0.376 0.063 0.011 0.143 0.023 0.177 0.023zM20.769 3.411c0.137 0.126 0.183 0.211 0.188 0.388l0.006 0.222-0.245 0.017c-0.291 0.023-0.388-0.046-0.53-0.359-0.171-0.371-0.148-0.428 0.148-0.428 0.2 0 0.297 0.034 0.433 0.16zM9.412 3.645c0 0.268-0.131 0.445-0.388 0.519-0.165 0.046-0.194 0.034-0.251-0.080-0.086-0.188 0.046-0.439 0.297-0.559 0.297-0.148 0.342-0.131 0.342 0.12zM12.207 3.514c0.126 0.051 0.228 0.103 0.228 0.12s-0.051 0.103-0.12 0.194c-0.217 0.308-0.61 0.416-0.941 0.268l-0.154-0.074 0.137-0.034c0.137-0.040 0.137-0.040 0.011-0.046-0.074-0.006-0.131-0.029-0.131-0.051 0-0.074 0.302-0.342 0.456-0.405 0.2-0.080 0.251-0.074 0.513 0.029zM22.389 3.594l0.148 0.057-0.114 0.217c-0.148 0.291-0.342 0.411-0.662 0.411-0.251 0-0.354-0.080-0.154-0.131 0.074-0.023 0.063-0.029-0.029-0.034-0.16-0.006-0.16-0.029-0.011-0.245 0.2-0.274 0.525-0.388 0.821-0.274zM6.708 3.913c0.108 0.2 0.080 0.394-0.080 0.593l-0.103 0.125-0.165-0.137c-0.188-0.165-0.211-0.439-0.057-0.73 0.080-0.148 0.103-0.16 0.2-0.103 0.057 0.040 0.154 0.148 0.205 0.251zM15.732 3.776c0.040 0.337-0.268 0.667-0.627 0.685-0.245 0.006-0.331-0.040-0.331-0.188 0-0.342 0.394-0.696 0.742-0.667 0.171 0.017 0.2 0.040 0.217 0.171zM23.666 3.736c0.188 0.097 0.234 0.188 0.234 0.491 0 0.211-0.011 0.222-0.171 0.222-0.262 0-0.399-0.177-0.399-0.513 0-0.319 0.051-0.348 0.337-0.2zM17.745 3.93c0.222 0.217 0.279 0.348 0.16 0.348-0.029 0-0.040 0.023-0.023 0.057 0.017 0.029-0.023 0.063-0.097 0.068-0.394 0.023-0.599-0.080-0.764-0.388-0.097-0.171-0.097-0.205-0.023-0.251 0.046-0.029 0.183-0.057 0.308-0.057 0.177 0 0.257 0.040 0.439 0.222zM10.467 3.907c0.165 0.16 0.177 0.217 0.051 0.337-0.137 0.143-0.445 0.114-0.645-0.057-0.211-0.177-0.222-0.268-0.046-0.354 0.228-0.108 0.491-0.080 0.639 0.074zM13.747 4.232c0.251 0.171 0.268 0.24 0.091 0.416-0.183 0.183-0.462 0.188-0.724 0.011-0.251-0.165-0.245-0.314 0.006-0.445 0.257-0.143 0.399-0.137 0.627 0.017zM20.934 4.25c0.325 0.171 0.468 0.724 0.217 0.821-0.234 0.086-0.462 0.023-0.633-0.177-0.165-0.194-0.297-0.576-0.24-0.673 0.051-0.086 0.468-0.068 0.656 0.029zM12.395 4.341c0.068 0.040 0.137 0.074 0.148 0.086s-0.040 0.108-0.108 0.222c-0.154 0.245-0.376 0.371-0.679 0.371-0.228 0-0.354-0.080-0.222-0.131 0.046-0.017 0.034-0.034-0.023-0.034-0.148-0.006-0.126-0.137 0.057-0.302 0.297-0.279 0.565-0.342 0.827-0.211zM9.708 4.506c0.040 0.257-0.086 0.491-0.297 0.565-0.28 0.097-0.331 0.080-0.371-0.108-0.051-0.222 0.080-0.428 0.331-0.536 0.268-0.12 0.308-0.108 0.337 0.080zM22.742 4.466c0.063 0.068-0.108 0.382-0.308 0.553-0.16 0.143-0.245 0.171-0.473 0.171-0.279 0-0.433-0.080-0.245-0.131 0.074-0.017 0.068-0.029-0.029-0.034-0.131-0.006-0.131-0.006-0.029-0.183 0.057-0.097 0.194-0.24 0.302-0.319 0.16-0.114 0.251-0.137 0.473-0.114 0.148 0.011 0.285 0.040 0.308 0.057zM5.676 4.54c0.228 0.103 0.342 0.342 0.285 0.593-0.040 0.171-0.051 0.183-0.222 0.148-0.222-0.046-0.354-0.2-0.405-0.491-0.057-0.354 0.011-0.411 0.342-0.251zM8.282 4.563c0.080 0.057 0.177 0.188 0.217 0.285 0.063 0.154 0.063 0.183-0.034 0.257-0.063 0.046-0.217 0.086-0.348 0.086-0.211 0-0.279-0.034-0.473-0.228-0.125-0.125-0.228-0.262-0.228-0.302 0-0.211 0.633-0.279 0.867-0.097zM24.636 4.626c0.154 0.439 0.040 0.907-0.274 1.129-0.205 0.148-0.257 0.148-0.177 0.011 0.091-0.171 0.068-0.217-0.034-0.068-0.125 0.177-0.194 0.091-0.234-0.291-0.034-0.359 0.051-0.576 0.325-0.81 0.234-0.194 0.319-0.188 0.394 0.029zM19.502 4.717l0.125 0.103-0.177 0.211c-0.228 0.274-0.508 0.371-0.816 0.274-0.154-0.046-0.205-0.080-0.16-0.114 0.063-0.034 0.063-0.051 0-0.074-0.114-0.034-0.006-0.205 0.234-0.371 0.234-0.154 0.616-0.171 0.793-0.029zM7.273 4.86c0.177 0.080 0.177 0.108-0.011 0.337-0.188 0.217-0.445 0.337-0.662 0.297-0.165-0.034-0.268-0.131-0.143-0.137 0.040 0 0.029-0.023-0.029-0.046-0.097-0.034-0.097-0.046 0.023-0.2 0.131-0.165 0.399-0.314 0.576-0.319 0.051 0 0.165 0.029 0.245 0.068zM23.507 4.911c0.262 0.188 0.354 0.416 0.319 0.81-0.017 0.183-0.046 0.354-0.068 0.371-0.017 0.023-0.086-0.023-0.143-0.103-0.063-0.080-0.114-0.114-0.114-0.086 0 0.034 0.029 0.091 0.068 0.131 0.097 0.097 0.017 0.148-0.114 0.074-0.228-0.12-0.376-0.411-0.376-0.719 0.006-0.314 0.097-0.599 0.2-0.599 0.034 0 0.137 0.051 0.228 0.12zM10.724 4.968c0 0.211-0.228 0.656-0.388 0.747-0.411 0.24-0.684 0.154-0.616-0.188 0.074-0.388 0.416-0.673 0.821-0.679 0.148 0 0.183 0.023 0.183 0.12zM14.648 5.042c-0.057 0.040-0.103 0.097-0.103 0.125 0 0.023 0.029 0.017 0.068-0.023 0.188-0.188 0.222 0.103 0.046 0.445-0.143 0.279-0.319 0.399-0.605 0.416-0.217 0.011-0.222 0.006-0.24-0.188-0.029-0.405 0.388-0.861 0.787-0.856 0.131 0.006 0.137 0.011 0.046 0.080zM13.576 5.271c0 0.285-0.154 0.519-0.365 0.559s-0.28-0.034-0.274-0.279c0.011-0.257 0.268-0.53 0.496-0.53 0.131 0 0.143 0.023 0.143 0.251zM12.395 5.282c0.103 0.051 0.194 0.103 0.205 0.114 0.057 0.051-0.314 0.416-0.508 0.508-0.251 0.114-0.593 0.091-0.736-0.057-0.080-0.074-0.074-0.086 0.023-0.091s0.091-0.011-0.017-0.046l-0.137-0.034 0.143-0.148c0.302-0.331 0.684-0.416 1.027-0.245zM5.39 5.328c0.183 0.080 0.308 0.245 0.394 0.53 0.034 0.108 0.023 0.125-0.057 0.091-0.068-0.023-0.086-0.017-0.057 0.029s-0.011 0.068-0.108 0.068c-0.171 0-0.371-0.091-0.468-0.222-0.091-0.12-0.194-0.468-0.154-0.53 0.046-0.068 0.228-0.057 0.451 0.034zM21.088 5.499c0.211 0.228 0.234 0.319 0.091 0.325-0.063 0-0.074 0.017-0.029 0.034 0.125 0.051 0.011 0.131-0.194 0.131-0.274 0-0.502-0.131-0.645-0.371-0.063-0.114-0.12-0.228-0.12-0.257 0-0.074 0.171-0.108 0.456-0.086 0.205 0.011 0.291 0.057 0.439 0.222zM8.659 5.385c0.405 0.211 0.565 0.616 0.297 0.759-0.205 0.114-0.605 0.057-0.776-0.103-0.177-0.165-0.388-0.502-0.348-0.542 0.051-0.051 0.462-0.188 0.57-0.194 0.057 0 0.171 0.034 0.257 0.080zM4.466 5.579c0.171 0.188 0.217 0.399 0.125 0.616-0.114 0.268-0.245 0.308-0.411 0.114-0.154-0.183-0.165-0.297-0.040-0.605 0.103-0.251 0.183-0.279 0.325-0.125zM15.914 5.698c0 0.297-0.183 0.513-0.468 0.559l-0.217 0.034v-0.211c0-0.228 0.126-0.519 0.24-0.565 0.040-0.017 0.16-0.034 0.262-0.034 0.177-0.006 0.183 0 0.183 0.217zM22.851 5.619c0.285 0.188 0.24 0.297-0.217 0.542-0.257 0.137-0.508 0.143-0.764 0.023-0.222-0.108-0.251-0.194-0.063-0.2l0.125-0.006-0.131-0.034c-0.211-0.063-0.177-0.137 0.16-0.314 0.348-0.183 0.627-0.188 0.89-0.011zM26.165 5.601c0.131 0.125 0.165 0.337 0.097 0.599-0.051 0.183-0.268 0.171-0.416-0.017-0.137-0.177-0.143-0.205-0.057-0.496 0.068-0.245 0.177-0.274 0.376-0.086zM19.246 5.653c0.080 0.063 0.177 0.165 0.211 0.228 0.051 0.097 0.029 0.125-0.154 0.2-0.365 0.154-0.702 0.006-0.707-0.302 0-0.080 0.051-0.143 0.16-0.177 0.234-0.091 0.325-0.080 0.491 0.051zM16.565 5.71c0.205 0.165 0.205 0.53 0 0.861l-0.154 0.24-0.188-0.222c-0.228-0.262-0.251-0.519-0.074-0.804 0.137-0.222 0.211-0.24 0.416-0.074zM25.315 5.704c0.131 0.057 0.24 0.143 0.24 0.188 0 0.194-0.616 0.61-0.913 0.61-0.183 0-0.565-0.183-0.439-0.211 0.137-0.034 0.12-0.131-0.029-0.131-0.12 0-0.114-0.006 0.046-0.177 0.177-0.194 0.553-0.394 0.736-0.394 0.063 0 0.222 0.051 0.359 0.114zM7.33 5.841c0.103 0.074 0.103 0.080-0.006 0.268-0.063 0.108-0.194 0.251-0.297 0.314l-0.177 0.125 0.211 0.034c0.12 0.017 0.262 0.068 0.325 0.114 0.108 0.074 0.108 0.086-0.046 0.302-0.080 0.12-0.228 0.262-0.319 0.319-0.205 0.12-0.627 0.125-0.781 0.011-0.103-0.080-0.103-0.080 0.034-0.091 0.131-0.006 0.131-0.011-0.023-0.046l-0.171-0.034 0.194-0.222c0.108-0.12 0.274-0.257 0.371-0.297l0.171-0.074-0.171-0.006c-0.222 0-0.428-0.057-0.428-0.114 0-0.029 0.057-0.063 0.131-0.074 0.108-0.023 0.103-0.023-0.029-0.034-0.091 0-0.16-0.023-0.16-0.051 0.006-0.063 0.177-0.251 0.365-0.399s0.633-0.171 0.804-0.046zM20.609 6.024c0.148 0.103 0.382 0.502 0.382 0.639 0 0.046-0.046 0.051-0.154 0.011-0.143-0.051-0.148-0.046-0.057 0.023 0.051 0.040 0.097 0.091 0.097 0.114 0 0.063-0.342 0.034-0.536-0.046-0.274-0.114-0.57-0.656-0.462-0.838 0.063-0.097 0.553-0.034 0.73 0.097zM12.344 6.052c0.080 0.040 0.183 0.148 0.234 0.251 0.097 0.211 0.114 0.451 0.029 0.399-0.029-0.017-0.057-0.006-0.057 0.023 0 0.108-0.217 0.068-0.365-0.068-0.137-0.12-0.291-0.565-0.217-0.639 0.051-0.046 0.222-0.034 0.376 0.034zM17.706 6.115c0.051 0.2 0.040 0.439-0.023 0.565-0.068 0.125-0.376 0.297-0.456 0.251-0.091-0.057-0.131-0.519-0.051-0.662 0.154-0.291 0.468-0.382 0.53-0.154zM9.087 6.423c0.205 0.103 0.439 0.302 0.439 0.376 0 0.023-0.068 0.051-0.154 0.051l-0.16 0.006 0.171 0.046 0.171 0.040-0.28 0.131c-0.245 0.114-0.308 0.12-0.508 0.057-0.274-0.080-0.707-0.462-0.639-0.565 0.131-0.217 0.662-0.291 0.958-0.143zM14.061 6.463c0.097 0.074 0.097 0.086-0.023 0.308-0.16 0.285-0.382 0.416-0.69 0.416-0.222 0-0.234-0.011-0.165-0.097s0.068-0.091-0.017-0.057c-0.143 0.051-0.131-0.057 0.029-0.285 0.211-0.314 0.633-0.451 0.867-0.285zM5.419 6.503c0 0.143-0.171 0.451-0.285 0.513-0.063 0.034-0.217 0.057-0.331 0.046-0.194-0.017-0.211-0.029-0.2-0.188 0.017-0.251 0.251-0.428 0.565-0.428 0.137 0 0.251 0.029 0.251 0.057zM22.93 6.64c0.314 0.154 0.513 0.468 0.513 0.816 0 0.268-0.063 0.314-0.16 0.114-0.057-0.108-0.057-0.103-0.029 0.057 0.034 0.217 0.023 0.222-0.228 0.097-0.462-0.234-0.713-0.662-0.633-1.078 0.040-0.228 0.086-0.228 0.536-0.006zM26.804 6.737c0.034 0.103 0.063 0.308 0.063 0.462 0 0.234-0.029 0.308-0.188 0.479-0.154 0.171-0.211 0.194-0.337 0.165-0.131-0.034-0.16-0.080-0.194-0.297-0.051-0.342 0.051-0.656 0.268-0.838 0.228-0.194 0.314-0.188 0.388 0.029zM11.95 6.731c0.24 0.114 0.348 0.268 0.428 0.61 0.051 0.205-0.017 0.302-0.211 0.302-0.348 0-0.645-0.365-0.645-0.793 0-0.274 0.068-0.297 0.428-0.12zM3.919 6.873c0.086 0.097 0.131 0.211 0.12 0.308-0.017 0.131-0.046 0.148-0.251 0.165-0.183 0.011-0.274-0.011-0.388-0.114-0.154-0.131-0.285-0.462-0.217-0.53 0.023-0.023 0.165-0.029 0.319-0.011 0.222 0.017 0.314 0.063 0.416 0.183zM25.201 6.845c0.217 0.131 0.222 0.165 0.063 0.365-0.165 0.211-0.513 0.376-0.787 0.376-0.382 0-0.724-0.217-0.359-0.234 0.114-0.006 0.125-0.017 0.040-0.034-0.274-0.057-0.279-0.068-0.143-0.217 0.183-0.194 0.565-0.371 0.799-0.371 0.108 0 0.285 0.051 0.388 0.114zM16.85 6.965c0.171 0.205 0.2 0.525 0.057 0.724-0.12 0.171-0.194 0.16-0.2-0.034l-0.011-0.154-0.023 0.154c-0.034 0.222-0.103 0.2-0.274-0.097-0.165-0.279-0.154-0.422 0.046-0.645 0.154-0.165 0.228-0.16 0.405 0.051zM17.968 7.318c0 0.399-0.103 0.616-0.371 0.781-0.222 0.137-0.319 0.12-0.194-0.040 0.074-0.097 0.074-0.097-0.068-0.006-0.148 0.091-0.154 0.091-0.183-0.017-0.046-0.177 0.017-0.576 0.12-0.764 0.12-0.211 0.582-0.462 0.65-0.354 0.023 0.034 0.046 0.217 0.046 0.399zM19.953 6.993c0.154 0.103 0.257 0.337 0.211 0.485-0.063 0.183-0.588 0.12-0.724-0.086-0.074-0.108-0.16-0.451-0.125-0.502 0.046-0.068 0.473 0 0.639 0.103zM22.126 7.050c0.222 0.183 0.222 0.279 0.006 0.394-0.274 0.143-0.599 0.114-0.736-0.063-0.16-0.2-0.154-0.234 0.068-0.365 0.245-0.154 0.451-0.143 0.662 0.034zM11.277 7.142c0.291 0.325 0.348 0.753 0.137 1.095-0.154 0.245-0.228 0.262-0.2 0.046l0.023-0.154-0.063 0.154c-0.034 0.091-0.080 0.16-0.103 0.16s-0.097-0.114-0.165-0.257c-0.194-0.399-0.16-0.781 0.091-1.072 0.114-0.125 0.137-0.125 0.28 0.029zM15.179 7.278c0.143 0.131 0.137 0.228-0.034 0.394-0.091 0.097-0.2 0.143-0.337 0.143-0.234 0-0.605-0.16-0.605-0.262 0-0.034 0.091-0.148 0.211-0.251 0.177-0.16 0.24-0.177 0.428-0.154 0.126 0.017 0.274 0.074 0.337 0.131zM8.847 7.432c0.188 0.125 0.451 0.508 0.451 0.662 0 0.051-0.046 0.063-0.154 0.040-0.148-0.034-0.148-0.029-0.057 0.046 0.143 0.114 0.034 0.165-0.245 0.12s-0.582-0.337-0.673-0.65c-0.040-0.131-0.057-0.262-0.040-0.291 0.068-0.108 0.519-0.063 0.719 0.074zM5.51 7.541c-0.046 0.245-0.274 0.445-0.508 0.445-0.262 0-0.337-0.068-0.291-0.251 0.057-0.228 0.279-0.376 0.582-0.376h0.257l-0.040 0.183zM4.021 7.586c0.165 0.063 0.171 0.068 0.057 0.154s-0.114 0.086 0.011 0.057c0.12-0.029 0.12-0.023 0.040 0.103-0.177 0.274-0.747 0.337-1.078 0.12-0.137-0.091-0.137-0.103-0.057-0.228 0.194-0.297 0.593-0.376 1.027-0.205zM13.764 7.592c0.148 0.074 0.319 0.279 0.325 0.376 0 0.034-0.114 0.108-0.257 0.16-0.325 0.126-0.622 0.086-0.838-0.12-0.194-0.188-0.205-0.279-0.029-0.194 0.12 0.063 0.12 0.057-0.011-0.046l-0.137-0.108 0.165-0.063c0.222-0.080 0.627-0.086 0.781-0.006zM25.937 7.832c0.314 0.342 0.439 1.107 0.137 0.821-0.063-0.057-0.074-0.051-0.046 0.029 0.091 0.268-0.496-0.029-0.633-0.314-0.046-0.091-0.091-0.302-0.108-0.479l-0.034-0.319 0.251 0.034c0.188 0.023 0.297 0.080 0.433 0.228zM7.598 7.986c-0.017 0.234-0.234 0.582-0.439 0.719-0.165 0.108-0.599 0.171-0.753 0.108-0.086-0.034-0.080-0.051 0.068-0.12l0.171-0.080-0.188 0.034c-0.183 0.034-0.194 0.029-0.154-0.097 0.068-0.234 0.314-0.565 0.502-0.684 0.137-0.080 0.262-0.108 0.496-0.097l0.314 0.017-0.017 0.2zM27.711 7.906c0.068 0.046 0.125 0.103 0.125 0.126s-0.103 0.143-0.222 0.262c-0.188 0.183-0.279 0.228-0.508 0.251-0.188 0.017-0.331-0.006-0.445-0.063-0.114-0.063-0.137-0.091-0.063-0.097 0.143 0 0.12-0.114-0.029-0.114-0.12 0-0.12 0 0.017-0.148 0.308-0.342 0.787-0.434 1.124-0.217zM2.63 7.872c0.126 0 0.28 0.24 0.28 0.428 0 0.171-0.017 0.2-0.131 0.2-0.177 0-0.365-0.183-0.411-0.394-0.046-0.205 0.006-0.314 0.126-0.268 0.046 0.017 0.108 0.034 0.137 0.034zM22.685 7.969c0.24 0.16 0.325 0.422 0.308 0.953-0.006 0.16-0.006 0.165-0.12 0.063-0.12-0.108-0.16-0.040-0.046 0.074s-0.057 0.086-0.268-0.046c-0.234-0.143-0.371-0.428-0.371-0.759 0-0.371 0.046-0.456 0.211-0.411 0.080 0.017 0.205 0.074 0.285 0.125zM21.721 8.185c0.251 0.274 0.24 0.388-0.057 0.491-0.536 0.177-0.93 0.046-1.067-0.354-0.051-0.148-0.040-0.177 0.086-0.257 0.359-0.24 0.747-0.194 1.038 0.12zM15.829 8.037l0.171 0.040-0.302 0.16c-0.365 0.205-0.354 0.251 0.017 0.091 0.148-0.063 0.285-0.103 0.302-0.091 0.046 0.051-0.040 0.297-0.16 0.451-0.148 0.188-0.439 0.274-0.81 0.228l-0.285-0.034 0.029-0.251c0.057-0.496 0.451-0.724 1.038-0.593zM24.91 8.277c0.405 0.194 0.416 0.291 0.063 0.639-0.188 0.188-0.371 0.319-0.479 0.342-0.228 0.046-0.548-0.040-0.673-0.183-0.097-0.103-0.086-0.114 0.205-0.211 0.325-0.108 0.245-0.183-0.091-0.086-0.274 0.074-0.268-0.023 0.011-0.291 0.354-0.348 0.576-0.399 0.964-0.211zM13.051 8.396c0.222 0.137 0.354 0.371 0.354 0.645 0 0.228-0.029 0.24-0.428 0.114-0.319-0.091-0.513-0.291-0.57-0.576-0.046-0.251 0-0.308 0.12-0.16 0.086 0.103 0.086 0.103 0.029-0.017-0.034-0.068-0.063-0.143-0.063-0.16 0-0.063 0.365 0.034 0.559 0.154zM4.324 8.414c0.023 0.017-0.040 0.097-0.131 0.177l-0.171 0.143 0.183-0.091c0.103-0.046 0.2-0.086 0.217-0.086 0.057 0-0.143 0.337-0.268 0.456-0.143 0.131-0.485 0.154-0.645 0.034-0.097-0.068-0.097-0.097-0.029-0.257 0.040-0.097 0.148-0.245 0.245-0.325 0.143-0.12 0.217-0.143 0.371-0.114 0.108 0.017 0.211 0.046 0.228 0.063zM2.419 8.522c0.262 0.108 0.433 0.348 0.433 0.599 0 0.154-0.017 0.183-0.057 0.12-0.046-0.074-0.057-0.068-0.057 0.011 0 0.137-0.114 0.126-0.348-0.029-0.228-0.154-0.337-0.342-0.337-0.599 0-0.205 0.068-0.228 0.365-0.103zM14.369 8.75c0.211 0.217 0.251 0.291 0.251 0.491 0 0.165-0.040 0.274-0.131 0.371-0.126 0.137-0.137 0.137-0.302 0.040-0.257-0.148-0.382-0.342-0.382-0.593s0.137-0.559 0.245-0.559c0.040 0 0.183 0.114 0.319 0.251zM27.608 8.756c0.097 0.051 0.171 0.114 0.171 0.137 0 0.097-0.456 0.451-0.627 0.479-0.154 0.034-0.433-0.017-0.582-0.108-0.051-0.034-0.029-0.057 0.068-0.086 0.137-0.040 0.137-0.040 0.017-0.046-0.194-0.006-0.16-0.097 0.108-0.291s0.576-0.228 0.844-0.086zM8.248 8.858c0.023 0.017-0.006 0.143-0.057 0.274-0.211 0.519-0.548 0.793-0.992 0.793-0.388 0-0.451-0.057-0.2-0.183 0.12-0.057 0.171-0.091 0.114-0.074-0.439 0.126-0.445 0.12-0.262-0.228 0.268-0.502 0.53-0.667 1.032-0.639 0.183 0.011 0.342 0.034 0.365 0.057zM11.95 9.007c0.245 0.143 0.428 0.439 0.428 0.696 0 0.205-0.011 0.222-0.154 0.222-0.091 0-0.291-0.063-0.451-0.137-0.314-0.143-0.479-0.394-0.479-0.702 0.006-0.154 0.006-0.154 0.091-0.046s0.086 0.108 0.046-0.051-0.034-0.16 0.154-0.12c0.108 0.023 0.268 0.086 0.365 0.137zM21.59 9.149c0.314 0.542 0.314 0.89-0.017 1.209-0.108 0.108-0.228 0.194-0.262 0.194-0.040 0-0.057-0.143-0.051-0.411 0.011-0.434-0.006-0.411-0.143 0.222l-0.046 0.217-0.154-0.297c-0.285-0.553-0.177-1.021 0.291-1.272 0.114-0.057 0.217-0.108 0.222-0.114 0.006 0 0.080 0.114 0.16 0.251zM28.201 8.99c0.063 0.165 0.034 0.508-0.051 0.633-0.046 0.063-0.16 0.148-0.257 0.177-0.148 0.051-0.183 0.046-0.257-0.063-0.143-0.205-0.103-0.382 0.143-0.622 0.251-0.234 0.365-0.268 0.422-0.126zM5.077 8.978c0 0.017-0.051 0.126-0.12 0.245l-0.12 0.217 0.177-0.2c0.183-0.211 0.194-0.205 0.177 0.114-0.023 0.411-0.268 0.65-0.633 0.616-0.165-0.017-0.194-0.040-0.211-0.188-0.034-0.285 0.091-0.593 0.291-0.713 0.16-0.103 0.439-0.154 0.439-0.091zM16.935 9.007c0.063 0.040 0.023 0.080-0.16 0.177-0.297 0.148-0.279 0.211 0.017 0.086 0.12-0.051 0.24-0.086 0.262-0.074 0.080 0.029-0.103 0.462-0.24 0.57-0.16 0.12-0.519 0.177-0.787 0.114-0.16-0.034-0.205-0.074-0.217-0.194-0.029-0.245 0.131-0.553 0.342-0.645s0.662-0.108 0.781-0.034zM20.038 9.092c0.291 0.12 0.399 0.28 0.394 0.582-0.011 0.354-0.063 0.399-0.319 0.28-0.382-0.183-0.542-0.542-0.365-0.827 0.086-0.137 0.063-0.131 0.291-0.034zM2.173 9.298c0.108 0.063 0.108 0.068 0.011 0.234-0.114 0.194-0.24 0.245-0.473 0.194-0.251-0.057-0.268-0.143-0.063-0.325 0.188-0.171 0.342-0.2 0.525-0.103zM15.458 9.629c0.080 0.302 0.011 0.508-0.245 0.724-0.126 0.108-0.251 0.2-0.28 0.2-0.080 0-0.274-0.359-0.274-0.502 0-0.2 0.143-0.439 0.382-0.633 0.2-0.165 0.222-0.171 0.291-0.080 0.040 0.051 0.091 0.183 0.126 0.291zM10.381 9.503c0.148 0.388-0.029 0.799-0.399 0.93-0.16 0.051-0.177 0.046-0.257-0.108-0.165-0.325-0.097-0.536 0.268-0.799 0.285-0.211 0.319-0.211 0.388-0.023zM2.738 9.606c0 0.017-0.051 0.126-0.12 0.245l-0.12 0.217 0.148-0.171c0.080-0.097 0.148-0.188 0.148-0.217 0-0.023 0.023-0.040 0.057-0.040 0.103 0 0.126 0.376 0.034 0.593-0.063 0.154-0.154 0.24-0.331 0.319-0.319 0.143-0.359 0.143-0.433-0.029-0.154-0.342-0.006-0.702 0.354-0.861 0.188-0.080 0.262-0.097 0.262-0.057zM28.652 9.737c0.2 0.228 0.16 0.599-0.097 0.81-0.074 0.063-0.114 0.046-0.24-0.080-0.171-0.171-0.16-0.382 0.040-0.662 0.137-0.194 0.171-0.2 0.297-0.068zM14.004 9.874c0.074 0.074 0.154 0.205 0.171 0.291 0.034 0.12 0.011 0.171-0.108 0.245-0.308 0.2-0.673 0.086-0.947-0.291l-0.177-0.251 0.188-0.086c0.274-0.126 0.707-0.080 0.873 0.091zM5.892 9.925c0.222 0.194 0.268 0.342 0.2 0.616-0.063 0.234-0.131 0.234-0.211 0-0.034-0.097-0.074-0.165-0.091-0.148s-0.006 0.103 0.029 0.188c0.091 0.24 0.023 0.24-0.228-0.011-0.245-0.251-0.274-0.388-0.143-0.645 0.114-0.217 0.205-0.217 0.445 0zM26.975 10.011c0.205 0.234 0.228 0.462 0.080 0.719-0.103 0.177-0.217 0.205-0.365 0.091-0.16-0.12-0.234-0.319-0.194-0.513 0.046-0.2 0.2-0.496 0.262-0.496 0.023 0 0.12 0.091 0.217 0.2zM8.562 10.073c0.086 0.086 0.2 0.268 0.245 0.405l0.086 0.257-0.154-0.040c-0.148-0.034-0.148-0.034-0.040 0.051s0.108 0.086-0.063 0.091c-0.291 0-0.548-0.217-0.667-0.559-0.051-0.171-0.080-0.331-0.063-0.365 0.068-0.108 0.485-0.006 0.656 0.16zM11.214 10.313c0.046 0.108 0.080 0.262 0.080 0.348-0.006 0.211-0.188 0.576-0.388 0.764l-0.171 0.165-0.046-0.194-0.046-0.188-0.068 0.342-0.097-0.183c-0.205-0.382-0.063-0.941 0.314-1.232 0.211-0.171 0.291-0.137 0.422 0.177zM26.17 10.239c0.040 0.080 0.068 0.2 0.068 0.262 0 0.137-0.297 0.451-0.422 0.451-0.103 0-0.205-0.171-0.205-0.348 0-0.114 0.348-0.508 0.451-0.508 0.023 0 0.074 0.063 0.108 0.143zM17.466 10.376c0.086 0.097 0.16 0.205 0.16 0.234s-0.171 0.057-0.382 0.068l-0.388 0.017 0.359 0.051c0.194 0.029 0.365 0.068 0.382 0.091 0.040 0.068-0.582 0.342-0.781 0.342-0.222 0-0.473-0.154-0.622-0.376-0.165-0.251-0.137-0.331 0.194-0.502 0.245-0.131 0.348-0.154 0.605-0.131 0.262 0.017 0.337 0.051 0.473 0.205zM19.776 10.524c0.188 0.337 0.177 0.719-0.023 0.935-0.262 0.285-0.319 0.257-0.314-0.137 0.006-0.245-0.006-0.308-0.046-0.228-0.029 0.063-0.051 0.177-0.051 0.257-0.006 0.080-0.029 0.177-0.057 0.222-0.040 0.063-0.074 0.034-0.148-0.108-0.24-0.462-0.211-0.799 0.097-1.055 0.234-0.2 0.382-0.165 0.542 0.114zM24.83 10.342c0.234 0.103 0.325 0.211 0.365 0.462 0.029 0.194 0.023 0.205-0.131 0.205-0.279-0.006-0.622-0.194-0.702-0.394-0.040-0.097-0.063-0.211-0.040-0.262 0.040-0.108 0.262-0.108 0.508-0.011zM3.548 10.524c-0.029 0.251-0.2 0.399-0.462 0.399-0.285 0-0.325-0.040-0.234-0.257 0.097-0.24 0.274-0.348 0.513-0.331 0.183 0.017 0.2 0.029 0.183 0.188zM23.746 10.764c0.194 0.097 0.382 0.394 0.382 0.599 0 0.148-0.017 0.16-0.217 0.16-0.399 0-0.81-0.359-0.81-0.707 0-0.091 0.011-0.097 0.091-0.029 0.086 0.068 0.091 0.063 0.051-0.057-0.040-0.126-0.029-0.131 0.154-0.091 0.103 0.023 0.262 0.080 0.348 0.126zM12.515 10.952c0.12 0.308 0.114 0.485-0.029 0.781-0.108 0.222-0.439 0.553-0.593 0.599-0.029 0.011-0.074-0.063-0.091-0.154l-0.040-0.171-0.006 0.154c-0.011 0.24-0.097 0.194-0.177-0.097-0.086-0.302-0.040-0.576 0.131-0.833 0.126-0.194 0.525-0.502 0.645-0.508 0.040 0 0.108 0.103 0.16 0.228zM13.964 10.838l0.183 0.114-0.137 0.268c-0.165 0.325-0.297 0.462-0.536 0.53-0.183 0.051-0.548-0.017-0.61-0.108-0.017-0.029 0.091-0.12 0.234-0.205 0.319-0.188 0.297-0.251-0.034-0.086-0.131 0.068-0.251 0.108-0.274 0.091-0.051-0.057 0.177-0.434 0.348-0.582 0.205-0.171 0.565-0.183 0.827-0.023zM29.051 10.878c0.046 0.228-0.091 0.496-0.319 0.633-0.257 0.165-0.342 0.16-0.297-0.006 0.029-0.097 0.023-0.103-0.023-0.040-0.051 0.074-0.063 0.068-0.091-0.011-0.063-0.165 0.12-0.485 0.354-0.61 0.291-0.154 0.342-0.148 0.376 0.034zM14.933 10.895c0.291 0.177 0.399 0.53 0.268 0.896-0.051 0.148-0.376 0.080-0.576-0.12-0.177-0.177-0.194-0.222-0.194-0.542 0-0.342 0.006-0.348 0.16-0.348 0.086 0 0.24 0.051 0.342 0.114zM1.649 11.037c0.16 0.080 0.439 0.468 0.382 0.53-0.017 0.017-0.080-0.006-0.131-0.051-0.091-0.074-0.097-0.068-0.023 0.023 0.108 0.137 0.051 0.177-0.262 0.165-0.325-0.011-0.513-0.137-0.673-0.434-0.097-0.183-0.103-0.217-0.029-0.262 0.131-0.086 0.553-0.068 0.736 0.029zM2.761 11.077c0.274 0.285 0.314 0.462 0.171 0.764-0.108 0.222-0.177 0.24-0.382 0.080-0.194-0.154-0.24-0.388-0.12-0.679 0.091-0.24 0.205-0.291 0.331-0.165zM22.759 11.134c0.314 0.165 0.468 0.371 0.479 0.656l0.006 0.217-0.274-0.011c-0.468-0.011-0.77-0.28-0.867-0.759l-0.040-0.2 0.125 0.114 0.131 0.114-0.068-0.131c-0.063-0.114-0.057-0.126 0.097-0.126 0.086 0 0.274 0.057 0.411 0.126zM27.87 11.106c0.040 0.057 0.080 0.222 0.080 0.371 0 0.205-0.034 0.308-0.148 0.439-0.165 0.2-0.251 0.222-0.257 0.074 0-0.080-0.011-0.080-0.051 0.017-0.040 0.108-0.051 0.103-0.108-0.046-0.131-0.325-0.051-0.599 0.251-0.85 0.143-0.126 0.143-0.126 0.234-0.006zM3.902 11.408c0.171 0.165 0.217 0.428 0.131 0.753-0.057 0.217-0.126 0.2-0.228-0.057-0.103-0.234-0.126-0.194-0.046 0.086 0.068 0.228 0.029 0.262-0.171 0.16-0.331-0.171-0.428-0.553-0.251-0.975 0.074-0.177 0.097-0.194 0.24-0.16 0.086 0.017 0.234 0.108 0.325 0.194zM17.38 11.499c0.154 0.114 0.456 0.627 0.405 0.684-0.017 0.011-0.091 0.006-0.165-0.023s-0.279-0.068-0.451-0.086l-0.314-0.040 0.445 0.183 0.445 0.177-0.274 0.108c-0.331 0.126-0.821 0.131-1.061 0.017-0.103-0.046-0.234-0.171-0.302-0.274-0.143-0.217-0.274-0.605-0.228-0.65 0.017-0.017 0.165-0.080 0.331-0.143 0.394-0.137 0.947-0.114 1.169 0.046zM4.866 11.551c0.114 0.080 0.251 0.222 0.297 0.314 0.091 0.171 0.114 0.491 0.046 0.662-0.034 0.091-0.040 0.091-0.080-0.011-0.040-0.097-0.046-0.097-0.046-0.011-0.017 0.325-0.633-0.28-0.633-0.616 0-0.148 0.114-0.479 0.165-0.479 0.017 0 0.131 0.063 0.251 0.143zM5.938 11.648c0.376 0.291 0.479 0.468 0.479 0.804 0 0.165-0.023 0.348-0.046 0.411-0.046 0.108-0.057 0.103-0.131-0.057l-0.080-0.171 0.017 0.183c0.023 0.217 0.029 0.217-0.177 0.108-0.479-0.251-0.696-0.781-0.519-1.283 0.080-0.222 0.154-0.222 0.456 0.006zM26.923 11.574c0.154 0.291 0.029 0.684-0.262 0.838-0.268 0.148-0.388 0.063-0.411-0.274-0.017-0.234 0-0.274 0.217-0.462 0.257-0.24 0.371-0.262 0.456-0.103zM7.803 11.693c0.125 0.103 0.125 0.12 0.046 0.28-0.125 0.24-0.359 0.405-0.588 0.405-0.217 0-0.588-0.137-0.588-0.222 0-0.029 0.114-0.171 0.257-0.314 0.222-0.234 0.279-0.262 0.496-0.262 0.154 0.006 0.291 0.046 0.376 0.114zM25.919 11.728c0.080 0.211 0.034 0.519-0.097 0.639-0.2 0.188-0.388 0.188-0.485-0.006-0.103-0.211-0.006-0.468 0.24-0.616 0.217-0.131 0.297-0.137 0.342-0.017zM28.937 11.756c0.16 0.080 0.439 0.342 0.439 0.405 0 0.029-0.091 0.091-0.2 0.137-0.154 0.063-0.251 0.068-0.416 0.023-0.211-0.051-0.616-0.399-0.473-0.399 0.040 0 0.057-0.023 0.034-0.051-0.086-0.143 0.388-0.228 0.616-0.114zM14.414 11.887c0.057 0.051-0.080 0.451-0.222 0.662-0.228 0.331-0.525 0.525-0.838 0.559-0.154 0.011-0.359 0.006-0.445-0.017l-0.16-0.046 0.188-0.074c0.24-0.103 0.234-0.154-0.017-0.103-0.245 0.046-0.251-0.006-0.046-0.382 0.148-0.274 0.399-0.513 0.656-0.622 0.131-0.057 0.821-0.040 0.884 0.023zM1.996 12.178c0.114 0.057 0.183 0.154 0.222 0.302 0.12 0.422 0.051 0.53-0.16 0.262-0.154-0.2-0.154-0.12 0 0.097l0.114 0.165h-0.177c-0.291 0-0.456-0.217-0.456-0.599 0-0.297 0.006-0.314 0.143-0.314 0.086 0 0.222 0.040 0.314 0.086zM0.97 12.315c0.154 0.108 0.262 0.399 0.211 0.542-0.040 0.108-0.262 0.12-0.462 0.029-0.16-0.074-0.319-0.365-0.319-0.582 0-0.137 0.017-0.143 0.217-0.12 0.114 0.011 0.274 0.074 0.354 0.131zM9.571 12.241c0.171 0.114 0.16 0.211-0.051 0.416-0.188 0.188-0.394 0.228-0.65 0.108-0.165-0.074-0.177-0.114-0.051-0.308 0.188-0.28 0.525-0.382 0.753-0.217zM28.617 12.515c0.183 0.165 0.2 0.205 0.137 0.28-0.125 0.154-0.376 0.171-0.616 0.046-0.319-0.16-0.376-0.24-0.268-0.394 0.143-0.205 0.485-0.171 0.747 0.068zM20.438 12.572c0.331 0.143 0.513 0.394 0.542 0.753l0.029 0.325-0.222-0.040c-0.485-0.091-0.821-0.462-0.821-0.901v-0.188l0.228 0.285-0.057-0.16c-0.063-0.183 0.006-0.2 0.302-0.074zM8.128 12.657c0.268 0.12 0.451 0.308 0.542 0.542l0.063 0.165-0.143-0.097c-0.205-0.131-0.245-0.114-0.091 0.051 0.074 0.080 0.12 0.154 0.103 0.177-0.017 0.017-0.177 0.046-0.354 0.063-0.548 0.057-0.953-0.165-1.141-0.622-0.097-0.234-0.080-0.262 0.217-0.337 0.302-0.068 0.57-0.051 0.804 0.057zM21.898 12.817c0.006-0.205 0.097-0.148 0.171 0.103 0.086 0.319-0.023 0.622-0.331 0.89l-0.262 0.234-0.097-0.126c-0.234-0.291-0.086-0.924 0.285-1.192l0.154-0.114 0.034 0.183c0.034 0.183 0.034 0.183 0.046 0.023zM29.684 12.697c0.137 0.051 0.108 0.183-0.074 0.371-0.183 0.183-0.428 0.217-0.599 0.091-0.086-0.063-0.091-0.097-0.040-0.2 0.131-0.245 0.451-0.365 0.713-0.262zM27.442 12.777c0.057 0.034 0.16 0.16 0.222 0.285 0.114 0.222 0.114 0.222 0.006 0.285-0.188 0.097-0.348 0.063-0.525-0.108-0.188-0.188-0.211-0.371-0.063-0.456 0.125-0.074 0.222-0.074 0.359-0.006zM3.93 13.176c0.268 0.131 0.371 0.371 0.285 0.627-0.068 0.194-0.097 0.2-0.365 0.091-0.24-0.103-0.314-0.24-0.314-0.57 0-0.302 0.057-0.325 0.394-0.148zM28.463 13.211c0.074 0.194 0.017 0.399-0.154 0.536-0.2 0.16-0.348 0.148-0.394-0.029-0.057-0.228 0.023-0.422 0.222-0.542 0.234-0.148 0.262-0.143 0.325 0.034zM2.099 13.496c0.023 0.222-0.125 0.399-0.371 0.451-0.183 0.034-0.188 0.034-0.188-0.171 0-0.416 0.519-0.679 0.559-0.28zM5.299 13.496c0.245 0.217 0.325 0.434 0.262 0.713-0.034 0.16-0.046 0.165-0.12 0.068s-0.074-0.097-0.080 0.023c0 0.16-0.023 0.16-0.228 0.017-0.171-0.12-0.342-0.434-0.342-0.616 0-0.194 0.103-0.411 0.2-0.411 0.046 0 0.188 0.091 0.308 0.205zM29.57 13.37c0.108 0.046 0.211 0.108 0.234 0.148 0.080 0.131-0.342 0.456-0.599 0.456-0.063 0-0.183-0.068-0.268-0.148l-0.143-0.143 0.131-0.148c0.125-0.131 0.297-0.234 0.411-0.24 0.023-0.006 0.131 0.029 0.234 0.074zM20.409 13.661c0.103 0.114 0.183 0.251 0.171 0.302s-0.143 0.183-0.297 0.28c-0.382 0.262-0.742 0.262-1.032 0.011-0.108-0.097-0.2-0.2-0.2-0.228s0.097-0.057 0.217-0.057c0.114-0.006 0.291-0.029 0.382-0.051 0.137-0.034 0.097-0.046-0.183-0.051-0.2 0-0.359-0.029-0.359-0.057 0-0.063 0.268-0.262 0.462-0.348 0.074-0.029 0.251-0.046 0.394-0.034 0.205 0.017 0.291 0.063 0.445 0.234zM0.861 13.787c0.2 0.12 0.314 0.394 0.183 0.439-0.183 0.074-0.359 0.029-0.502-0.12-0.302-0.331-0.080-0.553 0.319-0.319zM10.929 14.152c-0.126 0.422-0.063 0.422 0.126 0l0.165-0.359 0.097 0.154c0.12 0.183 0.177 0.53 0.126 0.742-0.051 0.2-0.405 0.582-0.667 0.713l-0.211 0.108-0.108-0.154c-0.148-0.222-0.245-0.462-0.245-0.61 0-0.302 0.234-0.645 0.627-0.907 0.183-0.12 0.2-0.057 0.091 0.314zM22.56 14.015l-0.034 0.16 0.091-0.16c0.114-0.2 0.165-0.165 0.285 0.194 0.16 0.473 0.046 0.89-0.297 1.118-0.108 0.074-0.125 0.063-0.251-0.137-0.108-0.171-0.137-0.297-0.137-0.599 0-0.342 0.017-0.399 0.165-0.553 0.097-0.097 0.177-0.177 0.188-0.177s0.006 0.068-0.011 0.154zM28.92 14.078c0.125 0.103 0.217 0.445 0.183 0.684-0.017 0.103-0.046 0.12-0.171 0.091-0.376-0.086-0.565-0.348-0.496-0.69 0.029-0.16 0.057-0.188 0.194-0.188 0.091 0 0.222 0.046 0.291 0.103zM27.813 14.215c-0.068-0.114 0.063-0.080 0.222 0.063 0.165 0.143 0.251 0.565 0.148 0.724-0.097 0.137-0.359 0.006-0.485-0.245-0.131-0.28-0.086-0.667 0.068-0.542 0.063 0.051 0.080 0.057 0.046 0zM9.32 14.528l-0.023 0.331 0.205-0.662 0.126 0.131c0.291 0.314 0.234 0.799-0.143 1.175l-0.262 0.257-0.188-0.205c-0.217-0.234-0.28-0.416-0.228-0.684 0.034-0.183 0.388-0.667 0.491-0.667 0.029 0 0.040 0.148 0.023 0.325zM25.902 14.317c0.125 0.068 0.279 0.348 0.279 0.513 0 0.091-0.034 0.114-0.194 0.114-0.245 0-0.485-0.091-0.582-0.217-0.080-0.103-0.103-0.365-0.040-0.428 0.057-0.063 0.411-0.046 0.536 0.017zM1.335 14.466c0.131 0.051 0.114 0.16-0.057 0.359-0.108 0.137-0.194 0.177-0.342 0.177-0.222 0-0.245-0.080-0.108-0.342 0.108-0.211 0.285-0.28 0.508-0.194zM3.308 14.477c0 0.023-0.023 0.074-0.057 0.114-0.040 0.051-0.040 0.051 0.011 0.011 0.154-0.126 0.222-0.063 0.183 0.154-0.080 0.479-0.337 0.759-0.673 0.759-0.131 0-0.148-0.023-0.148-0.2 0-0.376 0.194-0.696 0.513-0.838 0.12-0.051 0.171-0.051 0.171 0zM2.413 14.614c0.068 0.103-0.011 0.456-0.143 0.633-0.080 0.108-0.502 0.274-0.57 0.228-0.029-0.011-0.046-0.12-0.046-0.24 0-0.479 0.565-0.941 0.759-0.622zM23.877 14.694c0.234 0.245 0.257 0.53 0.080 0.884l-0.12 0.228-0.171-0.126c-0.388-0.274-0.519-0.793-0.268-1.061 0.165-0.177 0.257-0.165 0.479 0.074zM25.149 14.734c0.091 0.080 0.234 0.394 0.234 0.525 0 0.063-0.068 0.086-0.279 0.086-0.371 0-0.633-0.2-0.633-0.485 0-0.131 0.029-0.2 0.103-0.217 0.137-0.040 0.479 0.017 0.576 0.091zM8.374 15.076c0.148 0.16 0.217 0.496 0.16 0.804-0.046 0.24-0.143 0.262-0.416 0.091-0.257-0.154-0.359-0.388-0.359-0.804v-0.354l0.148 0.137c0.143 0.131 0.148 0.131 0.086 0.011-0.034-0.068-0.063-0.137-0.063-0.16 0-0.057 0.314 0.131 0.445 0.274zM4.558 14.985c-0.074 0.086-0.068 0.086 0.051 0.023s0.125-0.057 0.125 0.12c-0.006 0.308-0.188 0.639-0.416 0.747-0.274 0.131-0.382 0.125-0.388-0.034-0.011-0.245 0.017-0.468 0.080-0.582 0.091-0.171 0.365-0.359 0.548-0.365 0.063-0.006 0.063 0.011 0 0.091zM5.812 15.11c0.057 0.034 0.068 0.12 0.046 0.285-0.051 0.388-0.262 0.627-0.622 0.713-0.16 0.034-0.16 0.034-0.16-0.251 0-0.16 0.040-0.365 0.086-0.456 0.148-0.291 0.445-0.422 0.65-0.291zM7.010 15.184c-0.068 0.126-0.063 0.126 0.046 0.029 0.148-0.126 0.188-0.074 0.188 0.228 0 0.456-0.274 0.867-0.599 0.89-0.143 0.011-0.171-0.011-0.211-0.188-0.091-0.405 0.046-0.776 0.371-0.97 0.24-0.148 0.285-0.143 0.205 0.011zM1.871 15.84c0.108 0.114 0.125 0.188 0.103 0.325-0.057 0.285-0.251 0.411-0.588 0.382-0.137-0.011-0.302-0.234-0.302-0.411 0-0.479 0.468-0.656 0.787-0.297zM29.108 15.806c0.137 0.165 0.125 0.479-0.023 0.627-0.171 0.171-0.542 0.131-0.696-0.074s-0.097-0.525 0.12-0.645c0.194-0.108 0.462-0.068 0.599 0.091zM2.384 17.569c0.228 0.143 0.376 0.462 0.331 0.713-0.040 0.211-0.28 0.456-0.53 0.548-0.365 0.125-0.873-0.262-0.873-0.656 0-0.348 0.371-0.719 0.713-0.719 0.097 0 0.257 0.051 0.359 0.114zM28.612 17.563c0.234 0.143 0.388 0.468 0.331 0.707-0.063 0.279-0.183 0.428-0.451 0.525-0.234 0.091-0.257 0.091-0.496-0.017-0.183-0.080-0.279-0.171-0.348-0.314-0.12-0.245-0.12-0.331-0.017-0.582 0.16-0.382 0.633-0.53 0.981-0.319zM3.902 18.498c0.16 0.165 0.399 0.491 0.53 0.724 0.314 0.559 1.095 1.529 1.842 2.287 0.588 0.599 0.61 0.616 1.084 0.77 0.399 0.137 0.582 0.165 1.038 0.165 0.302 0 0.565-0.017 0.588-0.040 0.063-0.057-0.251-0.462-0.479-0.627-0.114-0.080-0.382-0.2-0.605-0.268-0.947-0.297-1.403-0.821-1.415-1.648-0.006-0.468 0.063-0.536 0.337-0.319 0.622 0.496 0.935 0.719 1.238 0.89 2.19 1.232 3.411 2.578 3.839 4.25 0.131 0.513 0.143 0.633 0.12 1.443-0.034 1.089-0.183 1.711-0.662 2.767-0.177 0.388-0.861 1.529-0.896 1.494-0.011-0.011 0.080-0.302 0.205-0.656 0.308-0.878 0.456-1.637 0.456-2.361 0-0.987-0.148-1.529-0.553-2.019-0.285-0.354-0.548-0.491-1.443-0.759-0.884-0.262-1.66-0.565-2.111-0.821-0.593-0.337-1.318-1.169-2.065-2.379-1.129-1.831-1.586-2.681-1.586-2.949 0-0.348 0.165-0.331 0.536 0.057zM26.912 18.384c0.023 0.211-0.24 0.764-0.861 1.808-1.107 1.86-1.683 2.681-2.196 3.149-0.519 0.462-1.398 0.861-2.932 1.329-0.753 0.228-1.038 0.411-1.34 0.85-0.599 0.878-0.576 2.612 0.063 4.312 0.108 0.297 0.194 0.542 0.183 0.553-0.029 0.029-0.582-0.85-0.77-1.221-0.291-0.582-0.519-1.198-0.673-1.837-0.12-0.496-0.148-0.742-0.148-1.346 0-0.816 0.074-1.221 0.359-1.962 0.456-1.175 1.569-2.367 2.966-3.183 0.759-0.445 1.455-0.913 1.78-1.209 0.148-0.131 0.308-0.234 0.354-0.217 0.103 0.040 0.143 0.399 0.080 0.719-0.125 0.673-0.53 1.089-1.312 1.352-0.262 0.086-0.57 0.217-0.684 0.291-0.228 0.154-0.542 0.565-0.479 0.633 0.023 0.023 0.279 0.040 0.565 0.040 0.422 0 0.627-0.034 1.038-0.165 0.508-0.16 0.525-0.171 1.055-0.713 0.73-0.736 1.569-1.774 1.939-2.401 0.325-0.548 0.742-0.987 0.901-0.958 0.057 0.011 0.103 0.080 0.114 0.177zM3.12 19.519c0.433 0.205 0.764 0.559 1.067 1.135 0.337 0.65 0.947 1.66 1.164 1.928 0.222 0.285 0.068 0.177-0.702-0.502-0.867-0.77-2.008-1.905-2.202-2.202-0.234-0.342-0.257-0.473-0.097-0.502 0.2-0.040 0.496 0.011 0.77 0.143zM27.922 19.394l0.148 0.057-0.114 0.211c-0.148 0.297-0.542 0.753-1.135 1.318-0.451 0.433-1.643 1.5-1.922 1.717-0.108 0.091-0.108 0.091-0.011-0.051 0.422-0.605 0.793-1.209 1.112-1.814 0.468-0.878 0.896-1.301 1.466-1.443 0.245-0.057 0.291-0.057 0.456 0.006zM16.217 19.622c0.53 0.753 0.502 1.996-0.080 3.149-0.222 0.439-0.576 2.088-0.702 3.268-0.097 0.867-0.274 1.369-0.724 2.031-0.245 0.359-1.112 1.306-1.198 1.306-0.023 0 0.006-0.148 0.068-0.331 0.063-0.177 0.217-0.73 0.342-1.221 0.285-1.129 0.365-2.031 0.28-3.229-0.086-1.295-0.074-1.911 0.057-2.464 0.205-0.856 0.53-1.552 0.97-2.093 0.234-0.279 0.667-0.639 0.77-0.645 0.034 0 0.131 0.103 0.217 0.228zM3.286 21.271c0.257 0.114 0.576 0.416 0.827 0.781 0.171 0.245 0.639 0.622 1.494 1.192 0.274 0.183 0.485 0.342 0.473 0.354-0.040 0.046-0.901-0.325-1.46-0.622-0.861-0.456-2.31-1.5-2.31-1.66 0-0.165 0.65-0.194 0.975-0.046zM27.83 21.225c0.097 0.034 0.177 0.080 0.177 0.103 0 0.063-1.112 0.907-1.637 1.238-0.742 0.468-1.956 1.050-2.196 1.050-0.034 0 0.228-0.194 0.588-0.433 1.004-0.667 1.192-0.833 1.631-1.409 0.388-0.508 0.947-0.719 1.437-0.548zM9.783 25.383c0.348 0.257 0.667 0.707 0.838 1.169 0.371 1.032-0.063 2.698-1.107 4.232l-0.165 0.245h-0.935c-0.53 0-0.941-0.023-0.941-0.051s0.068-0.114 0.16-0.188c0.376-0.331 0.964-1.015 1.295-1.523 1.021-1.557 1.101-2.938 0.234-4.078-0.114-0.143-0.205-0.279-0.205-0.291 0-0.051 0.525 0.257 0.827 0.485zM21.208 25.087c-0.673 0.719-0.85 1.871-0.468 2.978 0.297 0.856 0.867 1.694 1.757 2.59 0.177 0.177 0.319 0.331 0.319 0.348s-0.422 0.029-0.935 0.029h-0.935l-0.194-0.268c-0.536-0.742-1.027-1.894-1.164-2.727-0.080-0.473-0.086-0.633-0.029-0.992 0.091-0.593 0.331-1.084 0.713-1.46 0.297-0.285 0.998-0.742 1.055-0.679 0.011 0.011-0.040 0.097-0.12 0.183zM15.692 29.194c0.405 0.724 0.964 1.261 1.717 1.654l0.468 0.24h-2.652l-2.647-0.006 0.451-0.234c0.576-0.302 1.289-0.992 1.62-1.557 0.126-0.222 0.302-0.61 0.394-0.867l0.16-0.468 0.154 0.456c0.080 0.251 0.234 0.605 0.337 0.781z"></path>
<path fill="#516489" style="fill: var(--color1, #516489)" d="M9.811 5.704c-0.051 0.034-0.057 0.057-0.017 0.057 0.034 0 0.086-0.029 0.103-0.057 0.046-0.068 0.023-0.068-0.086 0z"></path>
<path fill="#516489" style="fill: var(--color1, #516489)" d="M26.393 7.683c-0.023 0.017-0.040 0.063-0.040 0.097s0.029 0.029 0.068-0.011c0.034-0.034 0.051-0.080 0.040-0.097-0.017-0.017-0.051-0.011-0.068 0.011z"></path>
<path fill="#516489" style="fill: var(--color1, #516489)" d="M12.19 7.535c0.040 0.040 0.086 0.057 0.103 0.040s-0.011-0.051-0.068-0.068c-0.080-0.034-0.086-0.029-0.034 0.029z"></path>
</symbol>
</defs>
</svg>
